M48
INCH
T01C0.0240
T02C0.1181
T03C0.0400
T04C0.0300
T05C0.0700
T06C0.0350
%
T01
X+006496Y+011885
X+006496Y+009251
X+006758Y+007637
X+016062Y+011929
X+010236Y+007007
X+012204Y+003425
X+010787Y+006023
X+015905Y+003503
X+015118Y+008740
X+018976Y+011456
X+012992Y+011811
X+011240Y+011712
X+010590Y+012125
X+012125Y+011850
X+014370Y+005905
X+014133Y+007322
X+013661Y+006102
X+014173Y+011417
X+016102Y+008267
X+010826Y+009291
X+010511Y+008228
X+015118Y+007755
X+015275Y+005866
X+010354Y+009960
X+019257Y+003149
X+018582Y+002165
X+011968Y+009370
X+018031Y+004763
X+018976Y+001654
X+015748Y+005590
X+016417Y+006377
X+013228Y+007322
X+006758Y+002795
X+005236Y+005826
X+004566Y+004370
X+010039Y+007559
X+003464Y+010879
X+007834Y+012401
X+012007Y+010748
X+012992Y+010078
X+012795Y+005984
X+007007Y+014173
X+009133Y+014173
X+009133Y+013346
X+015393Y+010748
X+016417Y+009488
X+008779Y+001102
X+008779Y+002834
X+009173Y+003976
X+015748Y+002795
X+006417Y+001299
T02
X+022070Y+012988
X+001598Y+012988
X+001598Y+001570
X+022070Y+001570
T03
X+011559Y+001039
X+012559Y+001039
X+013559Y+001039
X+014559Y+001039
X+015559Y+001039
X+016559Y+001039
X+019803Y+009291
X+019803Y+008291
X+019803Y+007291
X+019803Y+006291
X+019803Y+005291
X+020803Y+005291
X+020803Y+006291
X+020803Y+007291
X+020803Y+008291
X+020803Y+009291
T04
X+002909Y+006649
X+002909Y+007279
X+002909Y+007909
X+002397Y+006964
X+002397Y+007594
T05
X+002555Y+005665
X+002555Y+008893
X+000744Y+005665
X+000744Y+008893
T06
X+017622Y+013763
X+018409Y+013763
X+019196Y+013763
X+019984Y+013763
M30
